<?xml version="1.0" encoding="iso-8859-1"?>
<svg xmlns="http://www.w3.org/2000/svg" xmlns:xlink="http://www.w3.org/1999/xlink" version="1.1" viewBox="0 0 510.992 510.992" enable-background="new 0 0 510.992 510.992" width="512px" height="512px">
  <g>
    <path d="m397.923,91.54l-22.113-9.683h-67.316c-8.859-5.174-29.311-15.362-53.13-15.362-23.825,0-44.283,10.188-53.142,15.362h-67.029l-22.145,9.683-113.048,113.47 74.438,74.514 54.682-54.682v219.653h252.772v-219.62l54.65,54.65 74.451-74.514-113.07-113.471zm-97.496,3.423c-3.615,12.181-19.839,19.29-44.941,19.29-25.192,0-41.441-7.16-44.979-19.417 7.71-4.407 25.211-12.979 44.852-12.979 19.839,0.006 37.499,8.75 45.068,13.106zm-88.298,24.834c10.635,6.521 25.224,9.824 43.364,9.824 18.134,0 32.722-3.302 43.357-9.824 9.006-5.519 14.825-13.362 16.888-22.566h10.782c-5.506,12.736-23.103,40.847-71.155,40.847s-65.496-28.104-70.931-40.847h10.82c2.05,9.198 7.863,17.048 16.875,22.566zm-190.425,85.201l9.6-9.632 52.778,52.778-9.645,9.645-52.733-52.791zm65.093,40.431l-52.785-52.785 87.864-88.19 16.524-7.224h21.046v5.378h-14.64l-20.746,9.064-45.056,45.452 5.455,5.41 44.021-44.411 17.923-7.837h13.037v5.378h-8.201l-20.746,9.064-41.747,42.15 5.461,5.404 40.713-41.102 17.923-7.837h6.598v305.786h-14.965v-241.383l-57.679,57.683zm279.72-57.651v241.358h-14.997v-305.787h6.604l17.929,7.837 40.713,41.102 5.455-5.404-41.748-42.15-20.74-9.064h-8.214v-5.378h13.049l17.929,7.837 44.021,44.411 5.455-5.41-45.056-45.452-20.746-9.064h-14.652v-5.391h21.072l16.498,7.224 87.877,88.19-52.791,52.791-57.658-57.65zm70.011,70.011l-9.638-9.638 52.791-52.785 9.6,9.632-52.753,52.791z" fill="#e691e0"/>
  </g>
</svg>
