<?xml version="1.0" encoding="utf-8"?>
<!-- Generator: Adobe Illustrator 16.0.3, SVG Export Plug-In . SVG Version: 6.00 Build 0)  -->
<!DOCTYPE svg PUBLIC "-//W3C//DTD SVG 1.1//EN" "http://www.w3.org/Graphics/SVG/1.1/DTD/svg11.dtd">
<svg version="1.1" id="Layer_1" xmlns="http://www.w3.org/2000/svg" xmlns:xlink="http://www.w3.org/1999/xlink" x="0px" y="0px"
	 width="512px" height="512px" viewBox="0 0 512 512" enable-background="new 0 0 512 512" xml:space="preserve">
<g>
	<path fill="#45A811" d="M398.714,92.493l-22.157-9.702h-64.762c-6.848-4.3-29.234-16.935-55.789-16.935
		c-26.554,0-48.934,12.64-55.789,16.935h-64.749l-22.189,9.702L0,206.183l70.82,76.647l0,0l58.555-56.776v220.09h253.267V226.086
		l59.396,59.88l0,0L512,206.183L398.714,92.493L398.714,92.493z M389.869,105.427l100.39,100.743l-6.713,6.72l-97.402-97.389
		l-0.249-0.25l-19.873-8.979h-53.76c2.375-3.526,3.654-6.503,4.244-8.083h56.838L389.869,105.427z M301.357,94.496
		c-2.419,5.03-11.398,18.611-38.17,20.698l-1.938,10.399h-11.161l-1.939-10.458c-26.259-2.259-35.11-15.661-37.523-20.653
		c7.482-4.327,25.318-13.241,45.363-13.241C276.064,81.248,293.9,90.17,301.357,94.496z M122.125,105.427l16.557-7.244h56.826
		c0.589,1.593,1.869,4.557,4.243,8.083h-53.767l-19.865,8.979l-97.652,97.657l-6.713-6.726L122.125,105.427L122.125,105.427z"/>
</g>
</svg>
