<?xml version="1.0" standalone="no"?>
<!DOCTYPE svg PUBLIC "-//W3C//DTD SVG 20010904//EN"
 "http://www.w3.org/TR/2001/REC-SVG-20010904/DTD/svg10.dtd">
<svg version="1.0" xmlns="http://www.w3.org/2000/svg"
 width="260.000000pt" height="260.000000pt" viewBox="0 0 260.000000 260.000000"
 preserveAspectRatio="xMidYMid meet">
<metadata>
Created by potrace 1.11, written by Peter Selinger 2001-2013
</metadata>
<g transform="translate(0.000000,260.000000) scale(0.100000,-0.100000)"
fill="#000000" stroke="none">
<path d="M1684 1889 c-54 -40 -130 -96 -169 -124 -52 -39 -82 -54 -119 -59
-34 -5 -58 -16 -77 -35 -16 -17 -43 -31 -66 -34 -24 -4 -48 -17 -64 -35 -19
-21 -44 -33 -100 -46 -134 -31 -272 -77 -394 -131 -118 -51 -144 -61 -295
-106 -99 -29 -142 -51 -175 -91 -24 -28 -27 -38 -21 -81 3 -31 15 -62 32 -84
48 -64 169 -128 281 -151 66 -13 594 -7 1143 13 47 2 199 6 339 10 140 4 265
11 277 15 13 5 31 22 41 37 16 24 18 51 17 238 0 187 -3 219 -23 290 -35 126
-103 232 -152 237 -20 3 -28 -6 -51 -51 -16 -30 -35 -65 -43 -78 -38 -57 -201
-85 -299 -51 -69 23 -64 31 57 110 53 34 84 61 95 84 l15 33 -59 78 c-33 43
-66 79 -75 81 -9 1 -60 -30 -115 -69z m-257 -436 c43 -37 83 -72 89 -78 6 -6
39 -35 74 -65 35 -30 73 -64 84 -75 12 -11 57 -51 99 -89 45 -40 74 -72 68
-76 -9 -5 -76 -5 -171 -1 -15 1 -32 15 -175 145 -44 40 -126 113 -182 162 -56
49 -102 94 -102 101 -1 12 76 40 116 42 14 1 51 -24 100 -66z m-282 -39 c150
-135 202 -181 221 -199 11 -11 48 -45 82 -74 34 -30 62 -59 62 -66 0 -8 -27
-11 -90 -10 -86 2 -92 3 -123 32 -18 16 -56 52 -86 79 -30 27 -73 66 -95 87
-23 21 -65 59 -93 85 -29 25 -53 49 -53 53 0 6 103 44 130 48 3 0 23 -16 45
-35z"/>
<path d="M427 883 c-3 -5 -2 -27 3 -49 4 -21 11 -56 14 -76 l7 -38 70 0 c63 0
70 2 78 23 15 40 22 107 11 107 -5 0 -11 0 -12 1 -2 1 -32 7 -68 14 -36 7 -72
16 -81 19 -10 4 -19 3 -22 -1z"/>
<path d="M1736 882 l-68 -3 7 -47 c14 -97 9 -92 90 -92 l72 0 12 57 c6 31 11
63 11 72 0 17 -7 18 -124 13z"/>
<path d="M2004 833 c7 -32 13 -61 14 -65 1 -5 2 -12 2 -18 0 -15 140 -13 145
3 3 6 11 40 19 75 l14 62 -103 0 -103 0 12 -57z"/>
<path d="M726 852 c-13 -3 -16 -10 -12 -25 3 -12 8 -41 12 -64 l7 -43 73 0
c43 0 74 4 74 10 0 6 0 11 1 13 0 1 6 27 13 57 l13 56 -81 -1 c-45 0 -90 -2
-100 -3z"/>
</g>
</svg>
